<?xml version="1.0" encoding="UTF-8" standalone="no"?>
<!-- Created with Inkscape (http://www.inkscape.org/) -->

<svg
   width="95.05938mm"
   height="95.059364mm"
   viewBox="0 0 95.05938 95.059364"
   version="1.1"
   id="svg1"
   inkscape:version="1.3 (0e150ed6c4, 2023-07-21)"
   sodipodi:docname="icons entries exits npcsimulator.svg"
   xmlns:inkscape="http://www.inkscape.org/namespaces/inkscape"
   xmlns:sodipodi="http://sodipodi.sourceforge.net/DTD/sodipodi-0.dtd"
   xmlns:xlink="http://www.w3.org/1999/xlink"
   xmlns="http://www.w3.org/2000/svg"
   xmlns:svg="http://www.w3.org/2000/svg">
  <sodipodi:namedview
     id="namedview1"
     pagecolor="#ffffff"
     bordercolor="#666666"
     borderopacity="1.0"
     inkscape:showpageshadow="2"
     inkscape:pageopacity="0.0"
     inkscape:pagecheckerboard="0"
     inkscape:deskcolor="#d1d1d1"
     inkscape:document-units="mm"
     inkscape:zoom="0.37371282"
     inkscape:cx="584.67355"
     inkscape:cy="-634.1768"
     inkscape:window-width="1305"
     inkscape:window-height="874"
     inkscape:window-x="288"
     inkscape:window-y="98"
     inkscape:window-maximized="0"
     inkscape:current-layer="layer1"
     showgrid="false" />
  <defs
     id="defs1">
    <linearGradient
       id="linearGradient6"
       inkscape:collect="always">
      <stop
         style="stop-color:#ffffff;stop-opacity:0;"
         offset="0.66666663"
         id="stop7" />
      <stop
         style="stop-color:#858585;stop-opacity:1;"
         offset="1"
         id="stop6" />
    </linearGradient>
    <radialGradient
       inkscape:collect="always"
       xlink:href="#linearGradient6"
       id="radialGradient7-8-0-2-7-4-3-1-2"
       cx="83.895798"
       cy="58.948177"
       fx="83.895798"
       fy="58.948177"
       r="48.184818"
       gradientUnits="userSpaceOnUse"
       gradientTransform="translate(-12.26443,128.20944)" />
    <radialGradient
       inkscape:collect="always"
       xlink:href="#linearGradient6"
       id="radialGradient7-8-0-2-7-7-1-7"
       cx="83.895798"
       cy="58.948177"
       fx="83.895798"
       fy="58.948177"
       r="48.184818"
       gradientUnits="userSpaceOnUse"
       gradientTransform="translate(-12.26443,128.20944)" />
    <radialGradient
       inkscape:collect="always"
       xlink:href="#linearGradient6"
       id="radialGradient7-8-0-2-7-7-3-7-9"
       cx="83.895798"
       cy="58.948177"
       fx="83.895798"
       fy="58.948177"
       r="48.184818"
       gradientUnits="userSpaceOnUse"
       gradientTransform="translate(-12.26443,128.20944)" />
  </defs>
  <g
     inkscape:label="Ebene 1"
     inkscape:groupmode="layer"
     id="layer1"
     transform="translate(-185.16324,110.1336)">
    <g
       id="g17-9-8-69-1-1-9"
       transform="matrix(0.92858946,0,0,0.92858946,166.17681,-236.39651)"
       inkscape:export-filename="..\..\..\Unity Projekte\Labor 2024\Assets\Waypointer\Icons\ICON_newTwoWayConnection.png"
       inkscape:export-xdpi="68.403564"
       inkscape:export-ydpi="68.403564">
      <circle
         style="fill:#ffffff;stroke:#000000;stroke-width:6;stroke-opacity:0.98622;-inkscape-stroke:none"
         id="path1-3-3-5-0-6-8-8-6"
         cx="71.631355"
         cy="187.15762"
         r="48.184818" />
      <circle
         style="fill:url(#radialGradient7-8-0-2-7-4-3-1-2);fill-rule:nonzero;stroke:none;stroke-width:2;stroke-opacity:0.98622;-inkscape-stroke:none"
         id="path1-4-3-0-8-6-7-7-4-6"
         cx="71.631355"
         cy="187.15762"
         r="48.184818" />
    </g>
    <g
       id="g8-9-6-6"
       transform="matrix(0.63402834,0,0,0.63402834,226.09721,-99.894776)">
      <g
         id="g17-9-8-6-6-1"
         transform="matrix(0.79166019,0,0,0.79166019,-65.645749,-110.98416)"
         inkscape:export-filename="..\..\..\Unity Projekte\Labor 2024\Assets\Labor Projects\Die 1930 Linoeum Pattern World\Icons\ICON_defaultNode.png"
         inkscape:export-xdpi="20.058743"
         inkscape:export-ydpi="20.058743">
        <circle
           style="fill:#ffffff;stroke:#000000;stroke-width:6;stroke-opacity:0.98622;-inkscape-stroke:none"
           id="path1-3-3-5-0-3-7-6"
           cx="71.631355"
           cy="187.15762"
           r="48.184818" />
        <circle
           style="fill:url(#radialGradient7-8-0-2-7-7-1-7);fill-rule:nonzero;stroke:none;stroke-width:2;stroke-opacity:0.98622;-inkscape-stroke:none"
           id="path1-4-3-0-8-6-5-6-6"
           cx="71.631355"
           cy="187.15762"
           r="48.184818" />
      </g>
      <g
         id="g3-9-2-7"
         transform="translate(-165.95602,-10.513051)">
        <rect
           style="fill:#1a1a1a;stroke:#000000;stroke-width:0.287897;stroke-opacity:0.98622;-inkscape-stroke:none"
           id="rect1-0-3-2"
           width="4.0355721"
           height="44.103039"
           x="142.19547"
           y="27.216578" />
        <path
           id="rect2-9-8-8"
           style="fill:#1a1a1a;stroke:#000000;stroke-width:0.155217;stroke-opacity:0.98622"
           d="m 147.31766,27.202282 c 0,0 9.32528,-3.825432 14.04675,-3.110419 2.54607,0.385575 6.05776,2.329587 8.93293,4.177203 2.87518,1.84763 5.11382,0.661228 5.11382,0.661228 v 8.380869 8.380857 c 0,0 -2.23864,1.186391 -5.11382,-0.661227 -2.87517,-1.847629 -6.38686,-3.79164 -8.93293,-4.177216 -4.72147,-0.715012 -14.04675,3.11043 -14.04675,3.11043 z"
           sodipodi:nodetypes="csscccsscc" />
      </g>
    </g>
    <g
       id="g8-9-3-0-2"
       transform="matrix(0.33901623,0,0,0.33901623,253.92293,-49.555086)"
       style="opacity:0.75">
      <g
         id="g17-9-8-6-9-9-9"
         transform="matrix(0.79166019,0,0,0.79166019,-65.645749,-110.98416)"
         inkscape:export-filename="..\..\..\Unity Projekte\Labor 2024\Assets\Labor Projects\Die 1930 Linoeum Pattern World\Icons\ICON_defaultNode.png"
         inkscape:export-xdpi="20.058743"
         inkscape:export-ydpi="20.058743">
        <circle
           style="fill:#ffffff;stroke:#000000;stroke-width:6;stroke-opacity:0.98622;-inkscape-stroke:none"
           id="path1-3-3-5-0-3-4-3-7"
           cx="71.631355"
           cy="187.15762"
           r="48.184818" />
        <circle
           style="fill:url(#radialGradient7-8-0-2-7-7-3-7-9);fill-rule:nonzero;stroke:none;stroke-width:2;stroke-opacity:0.98622;-inkscape-stroke:none"
           id="path1-4-3-0-8-6-5-9-0-5"
           cx="71.631355"
           cy="187.15762"
           r="48.184818" />
      </g>
      <g
         id="g3-9-4-2-4"
         transform="translate(-165.95602,-10.513051)">
        <rect
           style="fill:#1a1a1a;stroke:#000000;stroke-width:0.287897;stroke-opacity:0.98622;-inkscape-stroke:none"
           id="rect1-0-1-8-9"
           width="4.0355721"
           height="44.103039"
           x="142.19547"
           y="27.216578" />
        <path
           id="rect2-9-5-4-3"
           style="fill:#1a1a1a;stroke:#000000;stroke-width:0.155217;stroke-opacity:0.98622"
           d="m 147.31766,27.202282 c 0,0 9.32528,-3.825432 14.04675,-3.110419 2.54607,0.385575 6.05776,2.329587 8.93293,4.177203 2.87518,1.84763 5.11382,0.661228 5.11382,0.661228 v 8.380869 8.380857 c 0,0 -2.23864,1.186391 -5.11382,-0.661227 -2.87517,-1.847629 -6.38686,-3.79164 -8.93293,-4.177216 -4.72147,-0.715012 -14.04675,3.11043 -14.04675,3.11043 z"
           sodipodi:nodetypes="csscccsscc" />
      </g>
    </g>
    <g
       id="path12-6-9"
       transform="matrix(0.84651798,0,0,0.84651798,167.47402,-98.608978)"
       style="opacity:0.93;fill:#00ff00;fill-opacity:1;stroke:#000000">
      <path
         id="path14-4-5"
         style="color:#000000;fill:#00ff00;fill-opacity:1;stroke:#000000;stroke-linecap:round;-inkscape-stroke:none"
         d="m 74.036529,27.304423 c -0.791274,-0.08455 -1.583723,0.148737 -2.202966,0.64854 -1.290339,1.039758 -1.493262,2.928768 -0.453202,4.218864 l 13.983803,15.618572 -2.568837,2.071191 c -1.502001,1.211468 -1.203934,3.580078 0.551387,4.381645 l 13.71544,6.26525 c 1.57384,0.718495 3.292646,-0.667671 2.92385,-2.357995 l -3.21685,-14.731918 c -0.411733,-1.885296 -2.663623,-2.678109 -4.16564,-1.466577 l -2.56884,2.071192 -13.982247,-15.619089 c -0.499531,-0.619405 -1.224683,-1.014977 -2.015898,-1.099675 z"
         sodipodi:nodetypes="ccccccccccccc" />
      <g
         id="g13-7-7"
         style="fill:#00ff00;fill-opacity:1;stroke:#000000" />
    </g>
    <g
       id="path12-6-9-5"
       transform="matrix(-0.84651798,0,0,-0.84651798,302.36815,-16.631115)"
       style="opacity:0.93;fill:#00ff00;fill-opacity:1;stroke:#000000">
      <path
         id="path14-4-5-3"
         style="color:#000000;fill:#00ff00;fill-opacity:1;stroke:#000000;stroke-linecap:round;-inkscape-stroke:none"
         d="m 74.036529,27.304423 c -0.791274,-0.08455 -1.583723,0.148737 -2.202966,0.64854 -1.290339,1.039758 -1.493262,2.928768 -0.453202,4.218864 l 13.983803,15.618572 -2.568837,2.071191 c -1.502001,1.211468 -1.203934,3.580078 0.551387,4.381645 l 13.71544,6.26525 c 1.57384,0.718495 3.292646,-0.667671 2.92385,-2.357995 l -3.21685,-14.731918 c -0.411733,-1.885296 -2.663623,-2.678109 -4.16564,-1.466577 l -2.56884,2.071192 -13.982247,-15.619089 c -0.499531,-0.619405 -1.224683,-1.014977 -2.015898,-1.099675 z"
         sodipodi:nodetypes="ccccccccccccc" />
      <g
         id="g13-7-7-6"
         style="fill:#00ff00;fill-opacity:1;stroke:#000000" />
    </g>
  </g>
</svg>
